<svg width="616" height="155" viewBox="0 0 616 155" fill="none" xmlns="http://www.w3.org/2000/svg">
<g filter="url(#filter0_d_722_1245)">
<g filter="url(#filter1_d_722_1245)">
<path d="M302.821 45.4933H288.488V63.5252C288.488 65.0279 287.37 65.7599 285.135 65.7599H262.75C257.741 65.7599 255.236 67.4553 255.236 70.8844C255.219 73.8701 256.121 76.7888 257.818 79.2453C258.46 80.3609 259.371 81.2981 260.468 81.9712C261.565 82.6442 262.813 83.0316 264.098 83.0983C266.736 82.8867 269.33 82.3031 271.804 81.3645C274.199 80.4231 276.716 79.8263 279.279 79.5921C282.824 79.5921 286.253 82.0966 289.643 87.1054C292.162 90.2907 293.725 94.1252 294.151 98.1635C294.151 108.875 286.574 115.874 271.419 119.162L291.917 140.546L286.792 145.054C275.426 130.259 268.105 122.206 264.907 120.896C261.26 120.558 257.679 119.702 254.273 118.353C252.38 117.144 250.923 115.362 250.112 113.267C248.968 110.954 248.362 108.412 248.339 105.831C248.533 104.571 249.193 103.429 250.189 102.633C250.822 102.011 251.576 101.526 252.405 101.208C253.233 100.89 254.118 100.745 255.005 100.783C257.42 101.323 259.572 102.685 261.093 104.636C262.941 106.38 264.547 108.363 265.871 110.532C270.285 110.711 274.654 109.586 278.431 107.295C280.707 106.176 282.631 104.451 283.99 102.31C285.35 100.169 286.093 97.6941 286.137 95.1582C286.137 90.6887 284.519 88.454 281.282 88.454C278.831 88.7556 276.425 89.3506 274.116 90.2263C271.64 91.1585 269.047 91.7421 266.41 91.9602C261.748 91.9602 257.317 88.7237 253.079 82.2506C249.581 77.4198 247.56 71.678 247.261 65.7214C247.261 60.0576 250.613 57.2063 257.278 57.2063H278.971V45.6473H236.28L231.078 35.8223H297.426L302.821 45.4933Z" fill="#F4B54C"/>
<path d="M302.821 45.4933H288.488V63.5252C288.488 65.0279 287.37 65.7599 285.135 65.7599H262.75C257.741 65.7599 255.236 67.4553 255.236 70.8844C255.219 73.8701 256.121 76.7888 257.818 79.2453C258.46 80.3609 259.371 81.2981 260.468 81.9712C261.565 82.6442 262.813 83.0316 264.098 83.0983C266.736 82.8867 269.33 82.3031 271.804 81.3645C274.199 80.4231 276.716 79.8263 279.279 79.5921C282.824 79.5921 286.253 82.0966 289.643 87.1054C292.162 90.2907 293.725 94.1252 294.151 98.1635C294.151 108.875 286.574 115.874 271.419 119.162L291.917 140.546L286.792 145.054C275.426 130.259 268.105 122.206 264.907 120.896C261.26 120.558 257.679 119.702 254.273 118.353C252.38 117.144 250.923 115.362 250.112 113.267C248.968 110.954 248.362 108.412 248.339 105.831C248.533 104.571 249.193 103.429 250.189 102.633C250.822 102.011 251.576 101.526 252.405 101.208C253.233 100.89 254.118 100.745 255.005 100.783C257.42 101.323 259.572 102.685 261.093 104.636C262.941 106.38 264.547 108.363 265.871 110.532C270.285 110.711 274.654 109.586 278.431 107.295C280.707 106.176 282.631 104.451 283.99 102.31C285.35 100.169 286.093 97.6941 286.137 95.1582C286.137 90.6887 284.519 88.454 281.282 88.454C278.831 88.7556 276.425 89.3506 274.116 90.2263C271.64 91.1585 269.047 91.7421 266.41 91.9602C261.748 91.9602 257.317 88.7237 253.079 82.2506C249.581 77.4198 247.56 71.678 247.261 65.7214C247.261 60.0576 250.613 57.2063 257.278 57.2063H278.971V45.6473H236.28L231.078 35.8223H297.426L302.821 45.4933Z" stroke="black" stroke-width="0.920677" stroke-miterlimit="10"/>
</g>
<g filter="url(#filter2_d_722_1245)">
<path d="M377.595 25.4426C364.408 15.0157 352.908 9.80213 343.094 9.80213C340.558 9.73363 338.036 10.1923 335.687 11.1491C333.338 12.1059 331.213 13.5401 329.447 15.3607C327.779 16.8694 326.434 18.7 325.491 20.7422C324.549 22.7844 324.03 24.9962 323.965 27.2444C323.821 30.1066 324.373 32.9611 325.575 35.5629H340.717L345.892 45.3382H329.715V126.454L319.097 120.359L319.442 45.3382H303.034L297.859 35.5629H320.132C316.879 31.556 314.998 26.6113 314.765 21.4558C314.851 16.8155 316.638 12.3683 319.787 8.95877C321.926 6.33915 324.649 4.25703 327.738 2.87906C330.827 1.50109 334.195 0.865664 337.574 1.02364C344.555 1.46829 351.362 3.38885 357.546 6.65869C364.756 9.91222 371.499 14.1152 377.595 19.1557V25.4426Z" fill="#F4B54C"/>
<path d="M377.595 25.4426C364.408 15.0157 352.908 9.80213 343.094 9.80213C340.558 9.73363 338.036 10.1923 335.687 11.1491C333.338 12.1059 331.213 13.5401 329.447 15.3607C327.779 16.8694 326.434 18.7 325.491 20.7422C324.549 22.7844 324.03 24.9962 323.965 27.2444C323.821 30.1066 324.373 32.9611 325.575 35.5629H340.717L345.892 45.3382H329.715V126.454L319.097 120.359L319.442 45.3382H303.034L297.859 35.5629H320.132C316.879 31.556 314.998 26.6113 314.765 21.4558C314.851 16.8155 316.638 12.3683 319.787 8.95877C321.926 6.33915 324.649 4.25703 327.738 2.87906C330.827 1.50109 334.195 0.865664 337.574 1.02364C344.555 1.46829 351.362 3.38885 357.546 6.65869C364.756 9.91222 371.499 14.1152 377.595 19.1557V25.4426Z" stroke="black" stroke-width="0.920677" stroke-miterlimit="10"/>
</g>
<g filter="url(#filter3_d_722_1245)">
<path d="M418.19 45.3359H404.926V126.451L394.116 120.356L394.806 71.2882H376.175C365.748 71.2882 360.535 75.965 360.535 85.3953C360.535 93.0621 366.796 104.422 379.319 119.475L373.798 123.998C358.644 105.24 351.066 90.3916 351.066 79.4535C350.93 76.7954 351.43 74.1432 352.523 71.7166C353.616 69.2901 355.272 67.1589 357.353 65.4997C360.847 62.8423 365.158 61.4866 369.543 61.6663H394.461V45.3359H340.601L335.426 35.5605H412.9L418.19 45.3359Z" fill="#F4B54C"/>
<path d="M418.19 45.3359H404.926V126.451L394.116 120.356L394.806 71.2882H376.175C365.748 71.2882 360.535 75.965 360.535 85.3953C360.535 93.0621 366.796 104.422 379.319 119.475L373.798 123.998C358.644 105.24 351.066 90.3916 351.066 79.4535C350.93 76.7954 351.43 74.1432 352.523 71.7166C353.616 69.2901 355.272 67.1589 357.353 65.4997C360.847 62.8423 365.158 61.4866 369.543 61.6663H394.461V45.3359H340.601L335.426 35.5605H412.9L418.19 45.3359Z" stroke="black" stroke-width="0.920677" stroke-miterlimit="10"/>
</g>
<g filter="url(#filter4_d_722_1245)">
<path d="M494.554 45.3359H472.281V63.468C472.281 65.768 471.17 66.9564 468.946 66.9564H438.662C436.789 66.9802 434.988 67.6893 433.602 68.9498C432.842 69.529 432.228 70.2778 431.809 71.1364C431.389 71.9949 431.177 72.9395 431.187 73.8949C431.283 75.7819 431.853 77.6143 432.844 79.2224C433.836 80.8306 435.217 82.1626 436.86 83.0952C442.627 79.2914 449.429 77.3634 456.334 77.575C461.885 77.8852 467.15 80.1378 471.208 83.9385C473.546 85.5655 475.492 87.6931 476.904 90.1665C478.317 92.6399 479.16 95.397 479.373 98.2373C479.373 105.904 474.467 111.309 464.576 114.146L458.826 105.214C466.225 103.834 469.943 100.422 469.943 94.9022C469.936 93.5713 469.616 92.2607 469.01 91.0756C468.405 89.8905 467.529 88.8641 466.455 88.0787C464.428 86.2895 461.835 85.2716 459.133 85.2036C456.248 85.1977 453.394 85.7947 450.753 86.9566C448.112 88.1185 445.744 89.8194 443.799 91.9504C442.072 93.5032 440.67 95.3841 439.677 97.4834C438.683 99.5828 438.117 101.859 438.011 104.179C438.011 108.626 440.962 113.303 446.942 118.286C454.715 124.399 463.572 128.99 473.048 131.818L471.86 135.92C461.028 133.61 450.728 129.279 441.499 123.155C431.966 116.51 427.2 109.252 427.2 101.381C427.167 98.7187 427.677 96.0778 428.698 93.6194C429.72 91.1609 431.232 88.9365 433.142 87.082C426.625 80.5651 423.367 74.815 423.367 69.8315C423.367 61.3979 427.814 57.1428 436.63 57.1428H461.663V45.3359H412.48L407.305 35.5605H489.34L494.554 45.3359Z" fill="#F4B54C"/>
<path d="M494.554 45.3359H472.281V63.468C472.281 65.768 471.17 66.9564 468.946 66.9564H438.662C436.789 66.9802 434.988 67.6893 433.602 68.9498C432.842 69.529 432.228 70.2778 431.809 71.1364C431.389 71.9949 431.177 72.9395 431.187 73.8949C431.283 75.7819 431.853 77.6143 432.844 79.2224C433.836 80.8306 435.217 82.1626 436.86 83.0952C442.627 79.2914 449.429 77.3634 456.334 77.575C461.885 77.8852 467.15 80.1378 471.208 83.9385C473.546 85.5655 475.492 87.6931 476.904 90.1665C478.317 92.6399 479.16 95.397 479.373 98.2373C479.373 105.904 474.467 111.309 464.576 114.146L458.826 105.214C466.225 103.834 469.943 100.422 469.943 94.9022C469.936 93.5713 469.616 92.2607 469.01 91.0756C468.405 89.8905 467.529 88.8641 466.455 88.0787C464.428 86.2895 461.835 85.2716 459.133 85.2036C456.248 85.1977 453.394 85.7947 450.753 86.9566C448.112 88.1185 445.744 89.8194 443.799 91.9504C442.072 93.5032 440.67 95.3841 439.677 97.4834C438.683 99.5828 438.117 101.859 438.011 104.179C438.011 108.626 440.962 113.303 446.942 118.286C454.715 124.399 463.572 128.99 473.048 131.818L471.86 135.92C461.028 133.61 450.728 129.279 441.499 123.155C431.966 116.51 427.2 109.252 427.2 101.381C427.167 98.7187 427.677 96.0778 428.698 93.6194C429.72 91.1609 431.232 88.9365 433.142 87.082C426.625 80.5651 423.367 74.815 423.367 69.8315C423.367 61.3979 427.814 57.1428 436.63 57.1428H461.663V45.3359H412.48L407.305 35.5605H489.34L494.554 45.3359Z" stroke="black" stroke-width="0.920677" stroke-miterlimit="10"/>
</g>
<g filter="url(#filter5_d_722_1245)">
<path d="M505.94 35.5605H518.859L524.072 45.3359H507.895V126.451L497.277 120.356L497.622 45.3359H481.1L475.848 35.5605H500.573" fill="#F4B54C"/>
<path d="M505.94 35.5605H518.859L524.072 45.3359H507.895V126.451L497.277 120.356L497.622 45.3359H481.1L475.848 35.5605H500.573" stroke="black" stroke-width="0.920677" stroke-miterlimit="10"/>
</g>
<g filter="url(#filter6_d_722_1245)">
<path d="M615 45.3359H601.736V126.451L590.926 120.356L591.693 87.6187C587.287 89.3456 582.649 90.405 577.931 90.7621C574.034 90.7422 570.185 89.8987 566.638 88.2867C563.09 86.6747 559.923 84.3306 557.345 81.4085C555.467 83.3252 552.86 85.7787 549.678 88.6921C546.151 90.4044 544.388 91.746 544.388 92.7171C544.388 93.0494 553.575 102.684 571.95 121.621L567.12 126.451C551.787 109.405 541.973 98.1606 537.679 92.7171C532.198 85.9703 529.438 81.2168 529.438 78.4184C529.469 76.9331 530.026 75.5072 531.009 74.3933C531.382 73.8314 531.881 73.3652 532.467 73.0322C533.053 72.6992 533.709 72.5088 534.383 72.4766C536.199 73.1189 537.935 73.9679 539.558 75.0067C541.263 76.1763 543.156 77.045 545.155 77.575C546.662 77.575 547.404 70.3171 547.378 55.8011C547.378 53.2455 547.148 49.7571 546.688 45.3359H518.781L513.605 35.5605H609.671L615 45.3359ZM591.271 74.5849V45.3359H557.498V75.275C562.547 78.6045 568.371 80.5721 574.404 80.9868C580.574 80.8088 586.504 78.5531 591.233 74.5849H591.271Z" fill="#F4B54C"/>
<path d="M615 45.3359H601.736V126.451L590.926 120.356L591.693 87.6187C587.287 89.3456 582.649 90.405 577.931 90.7621C574.034 90.7422 570.185 89.8987 566.638 88.2867C563.09 86.6747 559.923 84.3306 557.345 81.4085C555.467 83.3252 552.86 85.7787 549.678 88.6921C546.151 90.4044 544.388 91.746 544.388 92.7171C544.388 93.0494 553.575 102.684 571.95 121.621L567.12 126.451C551.787 109.405 541.973 98.1606 537.679 92.7171C532.198 85.9703 529.438 81.2168 529.438 78.4184C529.469 76.9331 530.026 75.5072 531.009 74.3933C531.382 73.8314 531.881 73.3652 532.467 73.0322C533.053 72.6992 533.709 72.5088 534.383 72.4766C536.199 73.1189 537.935 73.9679 539.558 75.0067C541.263 76.1763 543.156 77.045 545.155 77.575C546.662 77.575 547.404 70.3171 547.378 55.8011C547.378 53.2455 547.148 49.7571 546.688 45.3359H518.781L513.605 35.5605H609.671L615 45.3359ZM591.271 74.5849V45.3359H557.498V75.275C562.547 78.6045 568.371 80.5721 574.404 80.9868C580.574 80.8088 586.504 78.5531 591.233 74.5849H591.271Z" stroke="black" stroke-width="0.920677" stroke-miterlimit="10"/>
</g>
</g>
<g filter="url(#filter7_d_722_1245)">
<path d="M34.5622 124.75C28.2455 124.75 23.1491 123.709 19.273 121.627C15.3969 119.474 12.3821 116.603 10.2287 113.014C8.07527 109.353 6.63967 105.118 5.92187 100.309C5.20406 95.4276 4.84516 90.2235 4.84516 84.6965C4.84516 79.2412 5.16817 74.1089 5.8142 69.2996C6.532 64.4185 7.93171 60.1835 10.0133 56.5945C12.095 52.9337 15.038 50.0625 18.8423 47.9809C22.6467 45.8993 27.7072 44.8584 34.0238 44.8584C40.3405 44.8584 45.4369 45.9352 49.313 48.0886C53.2609 50.1702 56.2757 53.0414 58.3573 56.7022C60.4389 60.363 61.8386 64.6339 62.5564 69.5149C63.2742 74.3242 63.6331 79.4565 63.6331 84.9118C63.6331 90.3671 63.3101 95.4994 62.6641 100.309C62.0181 105.118 60.6543 109.353 58.5726 113.014C56.5628 116.603 53.6198 119.474 49.7437 121.627C45.9393 123.709 40.8788 124.75 34.5622 124.75ZM34.5622 116.998C38.869 116.998 42.2068 116.172 44.5755 114.521C46.9442 112.798 48.7029 110.501 49.8513 107.63C51.0716 104.687 51.7894 101.314 52.0048 97.5092C52.2919 93.6331 52.4354 89.5057 52.4354 85.1271C52.4354 80.7485 52.2919 76.6212 52.0048 72.7451C51.7894 68.7971 51.0716 65.3517 49.8513 62.4087C48.7029 59.3939 46.9084 57.0252 44.4678 55.3025C42.0991 53.508 38.7613 52.6107 34.4545 52.6107C30.2195 52.6107 26.8817 53.4721 24.4412 55.1948C22.0006 56.8457 20.1343 59.1427 18.8423 62.0857C17.622 64.9569 16.8325 68.3665 16.4736 72.3144C16.1864 76.1905 16.0429 80.3896 16.0429 84.9118C16.0429 89.4339 16.1864 93.669 16.4736 97.6169C16.8325 101.493 17.622 104.867 18.8423 107.738C20.1343 110.609 22.0006 112.87 24.4412 114.521C26.9535 116.172 30.3271 116.998 34.5622 116.998ZM133.176 54.6564V89.2186C133.176 93.5972 132.888 97.904 132.314 102.139C131.74 106.374 130.484 110.178 128.546 113.552C126.679 116.854 123.952 119.546 120.363 121.627C116.774 123.709 111.929 124.75 105.827 124.75C99.726 124.75 94.8808 123.709 91.2918 121.627C87.7028 119.546 84.9751 116.818 83.1088 113.444C81.2426 110.071 80.0223 106.266 79.4481 102.031C78.9456 97.7246 78.6944 93.3819 78.6944 89.0033V54.6564L68.681 52.503V46.0428H99.3671V52.503L89.3537 54.6564V89.2186C89.3537 92.5923 89.4973 95.9301 89.7844 99.2319C90.1433 102.534 90.8611 105.513 91.9378 108.169C93.0863 110.753 94.7372 112.87 96.8906 114.521C99.1158 116.172 102.095 116.998 105.827 116.998C109.56 116.998 112.539 116.172 114.764 114.521C116.989 112.798 118.676 110.609 119.824 107.953C120.973 105.297 121.691 102.354 121.978 99.1243C122.337 95.8224 122.516 92.5923 122.516 89.4339V54.6564L112.503 52.503V46.0428H143.189V52.503L133.176 54.6564ZM184.212 117.105L192.395 116.244L177.752 90.1876H168.277V114.952L178.29 117.105V123.565H147.604V117.105L157.618 114.952V54.6564L147.604 52.503V46.0428H180.982C186.007 46.0428 190.026 46.653 193.041 47.8732C196.128 49.0217 198.496 50.6009 200.147 52.6107C201.87 54.5488 203.019 56.8816 203.593 59.6093C204.167 62.2651 204.454 65.1005 204.454 68.1152C204.454 70.6993 204.239 73.1757 203.808 75.5445C203.449 77.9132 202.695 80.0307 201.547 81.897C200.399 83.7633 198.783 85.3784 196.702 86.7422C194.62 88.106 191.928 89.075 188.627 89.6493L204.023 114.952L210.914 117.105V123.565H184.212V117.105ZM179.259 82.1124C182.418 82.1124 184.93 81.7894 186.796 81.1433C188.734 80.4255 190.206 79.4924 191.211 78.3439C192.216 77.1236 192.862 75.688 193.149 74.0371C193.436 72.3144 193.579 70.484 193.579 68.5459C193.579 66.3207 193.436 64.3468 193.149 62.624C192.862 60.8295 192.216 59.3222 191.211 58.1019C190.206 56.8098 188.734 55.8408 186.796 55.1948C184.93 54.477 182.418 54.1181 179.259 54.1181H168.277V82.1124H179.259Z" fill="#F4B54C"/>
<path d="M19.273 121.627L18.8707 122.351L18.8811 122.357L19.273 121.627ZM10.2287 113.014L9.51477 113.434L9.51847 113.44L10.2287 113.014ZM5.92187 100.309L5.10244 100.429L5.10271 100.431L5.92187 100.309ZM5.8142 69.2996L4.99471 69.1791L4.99334 69.1893L5.8142 69.2996ZM10.0133 56.5945L10.7298 57.0101L10.7333 57.0039L10.0133 56.5945ZM49.313 48.0886L48.9108 48.8126L48.9187 48.817L48.9267 48.8212L49.313 48.0886ZM58.3573 56.7022L59.0773 56.2928L58.3573 56.7022ZM62.5564 69.5149L61.737 69.6354L61.7373 69.6372L62.5564 69.5149ZM62.6641 100.309L63.485 100.419L62.6641 100.309ZM58.5726 113.014L57.8526 112.604L57.85 112.609L58.5726 113.014ZM49.7437 121.627L50.1412 122.354L50.1459 122.351L49.7437 121.627ZM44.5755 114.521L45.0491 115.201L45.0559 115.196L45.0626 115.191L44.5755 114.521ZM49.8513 107.63L49.0862 107.313L49.0824 107.323L49.8513 107.63ZM52.0047 97.5092L51.1788 97.448L51.1782 97.4552L51.1778 97.4624L52.0047 97.5092ZM52.0047 72.745L51.1777 72.7902L51.1782 72.7982L51.1788 72.8062L52.0047 72.745ZM49.8513 62.4087L49.0774 62.7036L49.0817 62.7148L49.0863 62.7259L49.8513 62.4087ZM44.4678 55.3025L43.9677 55.9626L43.9788 55.9711L43.9902 55.9791L44.4678 55.3025ZM24.4412 55.1948L24.9052 55.8808L24.9121 55.8762L24.9188 55.8714L24.4412 55.1948ZM18.8423 62.0857L18.0839 61.7527L18.0801 61.7617L18.8423 62.0857ZM16.4736 72.3144L15.6486 72.2394L15.6476 72.2532L16.4736 72.3144ZM16.4736 97.6169L15.6475 97.677L15.6481 97.6851L15.6489 97.6933L16.4736 97.6169ZM18.8423 107.738L18.0801 108.062L18.0835 108.07L18.087 108.078L18.8423 107.738ZM24.4412 114.521L23.977 115.207L23.9863 115.213L24.4412 114.521ZM34.5622 123.922C28.3265 123.922 23.3794 122.893 19.6648 120.898L18.8811 122.357C22.9188 124.525 28.1645 125.578 34.5622 125.578V123.922ZM19.6752 120.903C15.9183 118.816 13.0131 116.045 10.9389 112.588L9.51847 113.44C11.7511 117.161 14.8754 120.132 18.8708 122.351L19.6752 120.903ZM10.9426 112.594C8.85024 109.037 7.4454 104.906 6.74103 100.186L5.10271 100.431C5.83394 105.33 7.30031 109.669 9.5148 113.434L10.9426 112.594ZM6.74129 100.188C6.03 95.3514 5.6734 90.1879 5.6734 84.6964H4.01693C4.01693 90.2591 4.37813 95.5038 5.10245 100.429L6.74129 100.188ZM5.6734 84.6964C5.6734 79.2736 5.9945 74.1784 6.63506 69.4099L4.99334 69.1893C4.34184 74.0393 4.01693 79.2087 4.01693 84.6964H5.6734ZM6.63362 69.4201C7.33896 64.6238 8.70985 60.4927 10.7298 57.01L9.29689 56.179C7.15357 59.8743 5.72504 64.2133 4.99478 69.1791L6.63362 69.4201ZM10.7333 57.0039C12.7366 53.4808 15.5661 50.7176 19.2399 48.7075L18.4447 47.2543C14.5098 49.4074 11.4533 52.3866 9.29336 56.1851L10.7333 57.0039ZM19.2399 48.7075C22.8793 46.7161 27.787 45.6867 34.0238 45.6867V44.0302C27.6273 44.0302 22.414 45.0824 18.4447 47.2543L19.2399 48.7075ZM34.0238 45.6867C40.256 45.6867 45.1989 46.7504 48.9108 48.8126L49.7152 47.3645C45.6748 45.1199 40.425 44.0302 34.0238 44.0302V45.6867ZM48.9267 48.8212C52.7436 50.8337 55.6386 53.5965 57.6373 57.1116L59.0773 56.2928C56.9128 52.4863 53.7782 49.5066 49.6993 47.3559L48.9267 48.8212ZM57.6373 57.1116C59.6603 60.6692 61.0316 64.8389 61.737 69.6354L63.3759 69.3944C62.6456 64.4289 61.2176 60.0568 59.0773 56.2928L57.6373 57.1116ZM61.7373 69.6372C62.4484 74.4015 62.8049 79.4926 62.8049 84.9118H64.4614C64.4614 79.4204 64.1001 74.247 63.3756 69.3927L61.7373 69.6372ZM62.8049 84.9118C62.8049 90.3347 62.4838 95.4298 61.8433 100.198L63.485 100.419C64.1365 95.5689 64.4614 90.3995 64.4614 84.9118H62.8049ZM61.8433 100.198C61.2092 104.918 59.8744 109.049 57.8527 112.604L59.2926 113.423C61.4341 109.657 62.8269 105.318 63.485 100.419L61.8433 100.198ZM57.85 112.609C55.9211 116.053 53.0941 118.819 49.3414 120.903L50.1459 122.351C54.1455 120.129 57.2045 117.152 59.2953 113.418L57.85 112.609ZM49.3461 120.901C45.7067 122.892 40.799 123.922 34.5622 123.922V125.578C40.9586 125.578 46.1719 124.526 50.1412 122.354L49.3461 120.901ZM34.5622 117.826C38.9597 117.826 42.4884 116.985 45.0491 115.201L44.1019 113.842C41.9251 115.359 38.7783 116.169 34.5622 116.169V117.826ZM45.0626 115.191C47.5648 113.371 49.4173 110.945 50.6203 107.938L49.0824 107.323C47.9884 110.057 46.3237 112.226 44.0884 113.851L45.0626 115.191ZM50.6164 107.947C51.8786 104.903 52.6121 101.436 52.8317 97.556L51.1778 97.4624C50.9668 101.191 50.2647 104.471 49.0863 107.313L50.6164 107.947ZM52.8307 97.5704C53.1195 93.6716 53.2637 89.5236 53.2637 85.1271H51.6072C51.6072 89.4878 51.4642 93.5946 51.1788 97.448L52.8307 97.5704ZM53.2637 85.1271C53.2637 80.7306 53.1195 76.5827 52.8307 72.6839L51.1788 72.8062C51.4642 76.6597 51.6072 80.7665 51.6072 85.1271H53.2637ZM52.8318 72.6999C52.6125 68.6801 51.88 65.139 50.6164 62.0915L49.0863 62.7259C50.2632 65.5644 50.9663 68.9141 51.1777 72.7902L52.8318 72.6999ZM50.6253 62.1139C49.4231 58.9581 47.5314 56.4512 44.9455 54.6258L43.9902 55.9791C46.2853 57.5992 47.9826 59.8298 49.0774 62.7036L50.6253 62.1139ZM44.968 54.6423C42.4034 52.6994 38.8636 51.7825 34.4545 51.7825V53.4389C38.659 53.4389 41.7948 54.3165 43.9677 55.9626L44.968 54.6423ZM34.4545 51.7825C30.1173 51.7825 26.5911 52.6634 23.9635 54.5182L24.9188 55.8714C27.1722 54.2808 30.3216 53.4389 34.4545 53.4389V51.7825ZM23.9771 54.5088C21.3954 56.2552 19.4329 58.6802 18.0839 61.7528L19.6007 62.4186C20.8358 59.6053 22.6058 57.4363 24.9052 55.8808L23.9771 54.5088ZM18.0801 61.7617C16.8184 64.7303 16.0134 68.2278 15.6487 72.2394L17.2984 72.3894C17.6515 68.5051 18.4256 65.1835 19.6045 62.4096L18.0801 61.7617ZM15.6476 72.2532C15.3587 76.1526 15.2146 80.3724 15.2146 84.9118H16.8711C16.8711 80.4069 17.0141 76.2284 17.2995 72.3756L15.6476 72.2532ZM15.2146 84.9118C15.2146 89.4512 15.3587 93.7065 15.6475 97.677L17.2996 97.5568C17.0141 93.6315 16.8711 89.4167 16.8711 84.9118H15.2146ZM15.6489 97.6933C16.0138 101.634 16.8192 105.095 18.0801 108.062L19.6045 107.414C18.4249 104.638 17.6511 101.352 17.2983 97.5405L15.6489 97.6933ZM18.087 108.078C19.4376 111.079 21.4005 113.464 23.9771 115.207L24.9052 113.835C22.6008 112.276 20.8311 110.139 19.5976 107.398L18.087 108.078ZM23.9863 115.213C26.6784 116.982 30.2289 117.826 34.5622 117.826V116.169C30.4254 116.169 27.2285 115.362 24.896 113.829L23.9863 115.213ZM133.176 54.6564L133.001 53.8467L132.347 53.9874V54.6564H133.176ZM132.314 102.139L131.493 102.028L132.314 102.139ZM128.546 113.552L127.828 113.14L127.825 113.145L128.546 113.552ZM120.363 121.627L119.947 120.911L120.363 121.627ZM91.2918 121.627L91.7073 120.911L91.2918 121.627ZM83.1088 113.444L82.3841 113.845L83.1088 113.444ZM79.4481 102.031L78.6254 102.127L78.6263 102.135L78.6273 102.143L79.4481 102.031ZM78.6944 54.6564H79.5226V53.9874L78.8685 53.8467L78.6944 54.6564ZM68.681 52.503H67.8528V53.1721L68.5069 53.3128L68.681 52.503ZM68.681 46.0428V45.2146H67.8528V46.0428H68.681ZM99.3671 46.0428H100.195V45.2146H99.3671V46.0428ZM99.3671 52.503L99.5412 53.3128L100.195 53.1721V52.503H99.3671ZM89.3537 54.6564L89.1796 53.8467L88.5255 53.9874V54.6564H89.3537ZM89.7844 99.2319L88.9593 99.3037L88.9601 99.3126L88.961 99.3214L89.7844 99.2319ZM91.9378 108.169L91.1702 108.48L91.1754 108.492L91.181 108.505L91.9378 108.169ZM96.8906 114.521L96.3867 115.178L96.3971 115.186L96.8906 114.521ZM114.764 114.521L115.257 115.186L115.264 115.181L115.271 115.176L114.764 114.521ZM119.824 107.953L119.064 107.625L119.824 107.953ZM121.978 99.1243L121.154 99.0348L121.154 99.0428L121.153 99.0509L121.978 99.1243ZM122.516 54.6564H123.344V53.9874L122.69 53.8467L122.516 54.6564ZM112.503 52.503H111.675V53.1721L112.329 53.3128L112.503 52.503ZM112.503 46.0428V45.2146H111.675V46.0428H112.503ZM143.189 46.0428H144.017V45.2146H143.189V46.0428ZM143.189 52.503L143.363 53.3128L144.017 53.1721V52.503H143.189ZM132.347 54.6564V89.2186H134.004V54.6564H132.347ZM132.347 89.2186C132.347 93.5609 132.063 97.8305 131.493 102.028L133.135 102.25C133.714 97.9775 134.004 93.6335 134.004 89.2186H132.347ZM131.493 102.028C130.932 106.167 129.707 109.867 127.828 113.14L129.264 113.965C131.26 110.489 132.548 106.581 133.135 102.25L131.493 102.028ZM127.825 113.145C126.038 116.306 123.421 118.896 119.947 120.911L120.778 122.344C124.482 120.195 127.321 117.402 129.267 113.96L127.825 113.145ZM119.947 120.911C116.53 122.893 111.847 123.922 105.827 123.922V125.578C112.01 125.578 117.017 124.525 120.778 122.344L119.947 120.911ZM105.827 123.922C99.8078 123.922 95.1243 122.893 91.7073 120.911L90.8763 122.344C94.6373 124.525 99.6441 125.578 105.827 125.578V123.922ZM91.7073 120.911C88.2378 118.899 85.6217 116.276 83.8336 113.044L82.3841 113.845C84.3285 117.36 87.1677 120.193 90.8763 122.344L91.7073 120.911ZM83.8336 113.044C82.0221 109.769 80.8307 106.064 80.2688 101.92L78.6273 102.143C79.2139 106.468 80.4631 110.373 82.3841 113.845L83.8336 113.044ZM80.2707 101.935C79.772 97.6608 79.5226 93.3501 79.5226 89.0033H77.8661C77.8661 93.4136 78.1192 97.7884 78.6254 102.127L80.2707 101.935ZM79.5226 89.0033V54.6564H77.8661V89.0033H79.5226ZM78.8685 53.8467L68.8552 51.6933L68.5069 53.3128L78.5202 55.4662L78.8685 53.8467ZM69.5093 52.503V46.0428H67.8528V52.503H69.5093ZM68.681 46.8711H99.3671V45.2146H68.681V46.8711ZM98.5388 46.0428V52.503H100.195V46.0428H98.5388ZM99.1929 51.6933L89.1796 53.8467L89.5279 55.4662L99.5412 53.3128L99.1929 51.6933ZM88.5255 54.6564V89.2186H90.182V54.6564H88.5255ZM88.5255 89.2186C88.5255 92.6158 88.6701 95.9775 88.9593 99.3037L90.6095 99.1602C90.3245 95.8826 90.182 92.5688 90.182 89.2186H88.5255ZM88.961 99.3214C89.3269 102.688 90.0606 105.743 91.1702 108.48L92.7054 107.857C91.6616 105.283 90.9597 102.38 90.6078 99.1424L88.961 99.3214ZM91.181 108.505C92.3832 111.21 94.1188 113.44 96.3867 115.178L97.3946 113.864C95.3557 112.301 93.7894 110.295 92.6947 107.832L91.181 108.505ZM96.3971 115.186C98.8073 116.974 101.978 117.826 105.827 117.826V116.169C102.211 116.169 99.4244 115.37 97.3841 113.856L96.3971 115.186ZM105.827 117.826C109.677 117.826 112.847 116.974 115.257 115.186L114.27 113.856C112.23 115.37 109.443 116.169 105.827 116.169V117.826ZM115.271 115.176C117.61 113.365 119.382 111.062 120.585 108.282L119.064 107.625C117.97 110.156 116.368 112.232 114.257 113.866L115.271 115.176ZM120.585 108.282C121.772 105.536 122.509 102.505 122.803 99.1976L121.153 99.0509C120.873 102.204 120.174 105.059 119.064 107.625L120.585 108.282ZM122.801 99.2138C123.163 95.8837 123.344 92.6237 123.344 89.4339H121.688C121.688 92.5609 121.51 95.7611 121.154 99.0348L122.801 99.2138ZM123.344 89.4339V54.6564H121.688V89.4339H123.344ZM122.69 53.8467L112.677 51.6933L112.329 53.3128L122.342 55.4662L122.69 53.8467ZM113.331 52.503V46.0428H111.675V52.503H113.331ZM112.503 46.8711H143.189V45.2146H112.503V46.8711ZM142.361 46.0428V52.503H144.017V46.0428H142.361ZM143.015 51.6933L133.001 53.8467L133.35 55.4662L143.363 53.3128L143.015 51.6933ZM184.212 117.105L184.125 116.282L183.384 116.36V117.105H184.212ZM192.395 116.244L192.482 117.068L193.734 116.936L193.117 115.838L192.395 116.244ZM177.752 90.1876L178.474 89.7819L178.236 89.3594H177.752V90.1876ZM168.277 90.1876V89.3594H167.449V90.1876H168.277ZM168.277 114.952H167.449V115.621L168.103 115.762L168.277 114.952ZM178.29 117.105H179.118V116.436L178.464 116.295L178.29 117.105ZM178.29 123.565V124.394H179.118V123.565H178.29ZM147.604 123.565H146.776V124.394H147.604V123.565ZM147.604 117.105L147.43 116.295L146.776 116.436V117.105H147.604ZM157.618 114.952L157.792 115.762L158.446 115.621V114.952H157.618ZM157.618 54.6564H158.446V53.9874L157.792 53.8467L157.618 54.6564ZM147.604 52.503H146.776V53.1721L147.43 53.3128L147.604 52.503ZM147.604 46.0428V45.2146H146.776V46.0428H147.604ZM193.041 47.8732L192.73 48.6409L192.741 48.6454L192.752 48.6495L193.041 47.8732ZM200.147 52.6107L199.507 53.1364L199.518 53.1489L199.528 53.161L200.147 52.6107ZM203.593 59.6093L202.782 59.7799L202.783 59.7843L203.593 59.6093ZM203.808 75.5445L202.993 75.3963L202.991 75.4083L202.989 75.4204L203.808 75.5445ZM201.547 81.897L202.252 82.3311L201.547 81.897ZM196.702 86.7422L197.156 87.435L196.702 86.7422ZM188.627 89.6493L188.485 88.8333L187.287 89.0415L187.919 90.0798L188.627 89.6493ZM204.023 114.952L203.316 115.382L203.478 115.649L203.776 115.742L204.023 114.952ZM210.914 117.105H211.743V116.496L211.161 116.315L210.914 117.105ZM210.914 123.565V124.394H211.743V123.565H210.914ZM184.212 123.565H183.384V124.394H184.212V123.565ZM186.796 81.1433L187.067 81.926L187.076 81.9231L187.084 81.92L186.796 81.1433ZM191.211 78.3439L191.834 78.8893L191.842 78.88L191.85 78.8704L191.211 78.3439ZM193.149 74.0371L193.965 74.179L193.966 74.1733L193.149 74.0371ZM193.149 62.624L192.331 62.7549L192.332 62.7602L193.149 62.624ZM191.211 58.1019L190.557 58.6104L190.564 58.6195L190.571 58.6284L191.211 58.1019ZM186.796 55.1948L186.499 55.9678L186.516 55.9746L186.534 55.9805L186.796 55.1948ZM168.277 54.1181V53.2899H167.449V54.1181H168.277ZM168.277 82.1124H167.449V82.9406H168.277V82.1124ZM184.299 117.929L192.482 117.068L192.308 115.42L184.125 116.282L184.299 117.929ZM193.117 115.838L178.474 89.7819L177.03 90.5934L191.673 116.65L193.117 115.838ZM177.752 89.3594H168.277V91.0159H177.752V89.3594ZM167.449 90.1876V114.952H169.105V90.1876H167.449ZM168.103 115.762L178.116 117.915L178.464 116.295L168.451 114.142L168.103 115.762ZM177.462 117.105V123.565H179.118V117.105H177.462ZM178.29 122.737H147.604V124.394H178.29V122.737ZM148.432 123.565V117.105H146.776V123.565H148.432ZM147.778 117.915L157.792 115.762L157.443 114.142L147.43 116.295L147.778 117.915ZM158.446 114.952V54.6564H156.789V114.952H158.446ZM157.792 53.8467L147.778 51.6933L147.43 53.3128L157.443 55.4662L157.792 53.8467ZM148.432 52.503V46.0428H146.776V52.503H148.432ZM147.604 46.8711H180.982V45.2146H147.604V46.8711ZM180.982 46.8711C185.952 46.8711 189.853 47.4763 192.73 48.6409L193.352 47.1055C190.2 45.8296 186.061 45.2146 180.982 45.2146V46.8711ZM192.752 48.6495C195.738 49.7603 197.971 51.266 199.507 53.1364L200.787 52.085C199.022 49.9357 196.518 48.2831 193.33 47.097L192.752 48.6495ZM199.528 53.161C201.148 54.9832 202.235 57.1824 202.782 59.7799L204.403 59.4386C203.802 56.5809 202.592 54.1143 200.766 52.0605L199.528 53.161ZM202.783 59.7843C203.344 62.3768 203.626 65.153 203.626 68.1152H205.282C205.282 65.0479 204.99 62.1535 204.402 59.4342L202.783 59.7843ZM203.626 68.1152C203.626 70.6532 203.414 73.0799 202.993 75.3963L204.623 75.6926C205.063 73.2716 205.282 70.7454 205.282 68.1152H203.626ZM202.989 75.4204C202.645 77.6896 201.927 79.6998 200.842 81.463L202.252 82.3311C203.464 80.3616 204.253 78.1369 204.627 75.6686L202.989 75.4204ZM200.842 81.463C199.765 83.2123 198.242 84.7432 196.248 86.0494L197.156 87.435C199.325 86.0135 201.032 84.3143 202.252 82.3311L200.842 81.463ZM196.248 86.0494C194.288 87.3338 191.712 88.2721 188.485 88.8333L188.768 90.4653C192.145 89.878 194.953 88.8782 197.156 87.435L196.248 86.0494ZM187.919 90.0798L203.316 115.382L204.731 114.521L189.334 89.2187L187.919 90.0798ZM203.776 115.742L210.667 117.896L211.161 116.315L204.27 114.161L203.776 115.742ZM210.086 117.105V123.565H211.743V117.105H210.086ZM210.914 122.737H184.212V124.394H210.914V122.737ZM185.04 123.565V117.105H183.384V123.565H185.04ZM179.259 82.9406C182.461 82.9406 185.077 82.6147 187.067 81.926L186.525 80.3607C184.782 80.964 182.374 81.2841 179.259 81.2841V82.9406ZM187.084 81.92C189.107 81.1705 190.712 80.1719 191.834 78.8893L190.587 77.7985C189.7 78.8129 188.361 79.6805 186.509 80.3667L187.084 81.92ZM191.85 78.8704C192.952 77.5327 193.655 75.9625 193.965 74.179L192.333 73.8952C192.069 75.4136 191.48 76.7146 190.571 77.8174L191.85 78.8704ZM193.966 74.1733C194.261 72.401 194.408 70.5247 194.408 68.5459H192.751C192.751 70.4432 192.611 72.2278 192.332 73.9009L193.966 74.1733ZM194.408 68.5459C194.408 66.2868 194.262 64.2659 193.966 62.4879L192.332 62.7602C192.61 64.4277 192.751 66.3546 192.751 68.5459H194.408ZM193.967 62.4932C193.66 60.5754 192.962 58.9254 191.85 57.5754L190.571 58.6284C191.469 59.7189 192.064 61.0837 192.331 62.7549L193.967 62.4932ZM191.864 57.5934C190.737 56.1436 189.113 55.0939 187.058 54.4091L186.534 55.9805C188.356 56.5877 189.675 57.4761 190.557 58.6104L191.864 57.5934ZM187.093 54.4218C185.094 53.6526 182.467 53.2899 179.259 53.2899V54.9463C182.368 54.9463 184.766 55.3014 186.499 55.9678L187.093 54.4218ZM179.259 53.2899H168.277V54.9463H179.259V53.2899ZM167.449 54.1181V82.1124H169.105V54.1181H167.449ZM168.277 82.9406H179.259V81.2841H168.277V82.9406Z" fill="black"/>
</g>
<defs>
<filter id="filter0_d_722_1245" x="230.312" y="0.540039" width="385.461" height="154.001" filterUnits="userSpaceOnUse" color-interpolation-filters="sRGB">
<feFlood flood-opacity="0" result="BackgroundImageFix"/>
<feColorMatrix in="SourceAlpha" type="matrix" values="0 0 0 0 0 0 0 0 0 0 0 0 0 0 0 0 0 0 127 0" result="hardAlpha"/>
<feOffset dy="8.81656"/>
<feComposite in2="hardAlpha" operator="out"/>
<feColorMatrix type="matrix" values="0 0 0 0 0 0 0 0 0 0 0 0 0 0 0 0 0 0 1 0"/>
<feBlend mode="normal" in2="BackgroundImageFix" result="effect1_dropShadow_722_1245"/>
<feBlend mode="normal" in="SourceGraphic" in2="effect1_dropShadow_722_1245" result="shape"/>
</filter>
<filter id="filter1_d_722_1245" x="230.312" y="35.3623" width="73.293" height="114.215" filterUnits="userSpaceOnUse" color-interpolation-filters="sRGB">
<feFlood flood-opacity="0" result="BackgroundImageFix"/>
<feColorMatrix in="SourceAlpha" type="matrix" values="0 0 0 0 0 0 0 0 0 0 0 0 0 0 0 0 0 0 127 0" result="hardAlpha"/>
<feOffset dy="3.85298"/>
<feComposite in2="hardAlpha" operator="out"/>
<feColorMatrix type="matrix" values="0 0 0 0 0 0 0 0 0 0 0 0 0 0 0 0 0 0 1 0"/>
<feBlend mode="normal" in2="BackgroundImageFix" result="effect1_dropShadow_722_1245"/>
<feBlend mode="normal" in="SourceGraphic" in2="effect1_dropShadow_722_1245" result="shape"/>
</filter>
<filter id="filter2_d_722_1245" x="297.094" y="0.540039" width="80.9609" height="130.542" filterUnits="userSpaceOnUse" color-interpolation-filters="sRGB">
<feFlood flood-opacity="0" result="BackgroundImageFix"/>
<feColorMatrix in="SourceAlpha" type="matrix" values="0 0 0 0 0 0 0 0 0 0 0 0 0 0 0 0 0 0 127 0" result="hardAlpha"/>
<feOffset dy="3.83344"/>
<feComposite in2="hardAlpha" operator="out"/>
<feColorMatrix type="matrix" values="0 0 0 0 0 0 0 0 0 0 0 0 0 0 0 0 0 0 1 0"/>
<feBlend mode="normal" in2="BackgroundImageFix" result="effect1_dropShadow_722_1245"/>
<feBlend mode="normal" in="SourceGraphic" in2="effect1_dropShadow_722_1245" result="shape"/>
</filter>
<filter id="filter3_d_722_1245" x="334.66" y="35.1006" width="84.3008" height="95.9721" filterUnits="userSpaceOnUse" color-interpolation-filters="sRGB">
<feFlood flood-opacity="0" result="BackgroundImageFix"/>
<feColorMatrix in="SourceAlpha" type="matrix" values="0 0 0 0 0 0 0 0 0 0 0 0 0 0 0 0 0 0 127 0" result="hardAlpha"/>
<feOffset dy="3.83344"/>
<feComposite in2="hardAlpha" operator="out"/>
<feColorMatrix type="matrix" values="0 0 0 0 0 0 0 0 0 0 0 0 0 0 0 0 0 0 1 0"/>
<feBlend mode="normal" in2="BackgroundImageFix" result="effect1_dropShadow_722_1245"/>
<feBlend mode="normal" in="SourceGraphic" in2="effect1_dropShadow_722_1245" result="shape"/>
</filter>
<filter id="filter4_d_722_1245" x="406.539" y="35.1006" width="88.7812" height="105.193" filterUnits="userSpaceOnUse" color-interpolation-filters="sRGB">
<feFlood flood-opacity="0" result="BackgroundImageFix"/>
<feColorMatrix in="SourceAlpha" type="matrix" values="0 0 0 0 0 0 0 0 0 0 0 0 0 0 0 0 0 0 127 0" result="hardAlpha"/>
<feOffset dy="3.83344"/>
<feComposite in2="hardAlpha" operator="out"/>
<feColorMatrix type="matrix" values="0 0 0 0 0 0 0 0 0 0 0 0 0 0 0 0 0 0 1 0"/>
<feBlend mode="normal" in2="BackgroundImageFix" result="effect1_dropShadow_722_1245"/>
<feBlend mode="normal" in="SourceGraphic" in2="effect1_dropShadow_722_1245" result="shape"/>
</filter>
<filter id="filter5_d_722_1245" x="475.078" y="35.1006" width="49.7617" height="95.9789" filterUnits="userSpaceOnUse" color-interpolation-filters="sRGB">
<feFlood flood-opacity="0" result="BackgroundImageFix"/>
<feColorMatrix in="SourceAlpha" type="matrix" values="0 0 0 0 0 0 0 0 0 0 0 0 0 0 0 0 0 0 127 0" result="hardAlpha"/>
<feOffset dy="3.83344"/>
<feComposite in2="hardAlpha" operator="out"/>
<feColorMatrix type="matrix" values="0 0 0 0 0 0 0 0 0 0 0 0 0 0 0 0 0 0 1 0"/>
<feBlend mode="normal" in2="BackgroundImageFix" result="effect1_dropShadow_722_1245"/>
<feBlend mode="normal" in="SourceGraphic" in2="effect1_dropShadow_722_1245" result="shape"/>
</filter>
<filter id="filter6_d_722_1245" x="512.84" y="35.1006" width="102.934" height="95.9721" filterUnits="userSpaceOnUse" color-interpolation-filters="sRGB">
<feFlood flood-opacity="0" result="BackgroundImageFix"/>
<feColorMatrix in="SourceAlpha" type="matrix" values="0 0 0 0 0 0 0 0 0 0 0 0 0 0 0 0 0 0 127 0" result="hardAlpha"/>
<feOffset dy="3.83344"/>
<feComposite in2="hardAlpha" operator="out"/>
<feColorMatrix type="matrix" values="0 0 0 0 0 0 0 0 0 0 0 0 0 0 0 0 0 0 1 0"/>
<feBlend mode="normal" in2="BackgroundImageFix" result="effect1_dropShadow_722_1245"/>
<feBlend mode="normal" in="SourceGraphic" in2="effect1_dropShadow_722_1245" result="shape"/>
</filter>
<filter id="filter7_d_722_1245" x="4.84375" y="44.8584" width="206.07" height="88.1739" filterUnits="userSpaceOnUse" color-interpolation-filters="sRGB">
<feFlood flood-opacity="0" result="BackgroundImageFix"/>
<feColorMatrix in="SourceAlpha" type="matrix" values="0 0 0 0 0 0 0 0 0 0 0 0 0 0 0 0 0 0 127 0" result="hardAlpha"/>
<feOffset dy="8.28233"/>
<feComposite in2="hardAlpha" operator="out"/>
<feColorMatrix type="matrix" values="0 0 0 0 0 0 0 0 0 0 0 0 0 0 0 0 0 0 1 0"/>
<feBlend mode="normal" in2="BackgroundImageFix" result="effect1_dropShadow_722_1245"/>
<feBlend mode="normal" in="SourceGraphic" in2="effect1_dropShadow_722_1245" result="shape"/>
</filter>
</defs>
</svg>
